<?xml version="1.0" encoding="utf-8"?>
<!-- Generator: Adobe Illustrator 21.1.0, SVG Export Plug-In . SVG Version: 6.00 Build 0)  -->
<svg version="1.1" id="Capa_1" xmlns="http://www.w3.org/2000/svg" xmlns:xlink="http://www.w3.org/1999/xlink" x="0px" y="0px"
	 viewBox="0 0 102 120" style="enable-background:new 0 0 102 120;" xml:space="preserve">
<style type="text/css">
	.st0{fill:#FFFFFF;}
	.st1{display:none;fill:#1D1D1B;}
	.st2{font-family:'Telegrafico';}
	.st3{font-size:12.2167px;}
	.st4{display:none;fill:#1D1D1B;stroke:#1D1D1B;stroke-width:0.5;stroke-miterlimit:10;}
	.st5{font-family:'Existence-Light';}
	.st6{font-size:12.9421px;}
	.st7{font-family:'GinoraSans-Regular';}
	.st8{font-size:14.6112px;}
</style>
<polygon class="st0" points="18.6,85.7 18.6,49.2 51.4,85.5 83.7,48.7 83.7,100.4 102.4,104.7 102.4,0.1 51.1,57.7 0.1,0.1 
	0.1,81.5 "/>
<text transform="matrix(1 0 0 1 3.027344e-02 117.5757)" class="st1 st2 st3">More  Interiorismo</text>
<g>
	<path class="st0" d="M2.1,113.7v3.9H1v-6.5l3.3,3.3l3.3-3.3v6.5H6.4v-3.9l-2.2,2.2L2.1,113.7z"/>
	<path class="st0" d="M12,111.1c0.9,0,1.7,0.3,2.3,1c0.6,0.6,1,1.4,1,2.3c0,0.9-0.3,1.7-1,2.3c-0.6,0.6-1.4,1-2.3,1s-1.7-0.3-2.3-1
		c-0.6-0.6-1-1.4-1-2.3c0-0.9,0.3-1.7,1-2.3C10.4,111.4,11.1,111.1,12,111.1z M12,112.1c-0.6,0-1.1,0.2-1.5,0.6
		c-0.4,0.4-0.6,0.9-0.6,1.5s0.2,1.1,0.6,1.5c0.4,0.4,0.9,0.6,1.5,0.6s1.1-0.2,1.5-0.6c0.4-0.4,0.6-0.9,0.6-1.5s-0.2-1.1-0.6-1.5
		C13.1,112.4,12.6,112.1,12,112.1z"/>
	<path class="st0" d="M20.8,117.6l-1.3-2.2h-1.8v2.2h-1.1v-6.5h3.3c0.6,0,1.1,0.2,1.5,0.6c0.4,0.4,0.6,0.9,0.6,1.5
		c0,0.5-0.1,0.9-0.4,1.2c-0.3,0.4-0.6,0.6-1,0.8l1.3,2.3H20.8z M19.8,112.1h-2.2v2.2l2.2,0c0.3,0,0.5-0.1,0.8-0.3
		c0.2-0.2,0.3-0.5,0.3-0.8c0-0.3-0.1-0.5-0.3-0.8C20.4,112.3,20.1,112.1,19.8,112.1z"/>
	<path class="st0" d="M27.6,111.1v1.1h-3.3v1.6h3.3v1.1h-3.3v1.6h3.3v1.1h-4.3v-6.5H27.6z"/>
	<path class="st0" d="M33.4,111.1h1.1v6.5h-1.1V111.1z"/>
	<path class="st0" d="M35.7,111l4.3,3.9V111h1.1v6.5v0v0l-4.4-3.9v3.9h-1.1V111z"/>
	<path class="st0" d="M42.4,111.1h5.4v1.1h-2.2v5.4h-1.1v-5.4h-2.2V111.1z"/>
	<path class="st0" d="M53.5,111.1v1.1h-3.3v1.6h3.3v1.1h-3.3v1.6h3.3v1.1h-4.3v-6.5H53.5z"/>
	<path class="st0" d="M58.9,117.6l-1.3-2.2h-1.8v2.2h-1.1v-6.5H58c0.6,0,1.1,0.2,1.5,0.6c0.4,0.4,0.6,0.9,0.6,1.5
		c0,0.5-0.1,0.9-0.4,1.2c-0.3,0.4-0.6,0.6-1,0.8l1.3,2.3H58.9z M58,112.1h-2.2v2.2l2.2,0c0.3,0,0.5-0.1,0.8-0.3
		c0.2-0.2,0.3-0.5,0.3-0.8c0-0.3-0.1-0.5-0.3-0.8C58.6,112.3,58.3,112.1,58,112.1z"/>
	<path class="st0" d="M61.4,111.1h1.1v6.5h-1.1V111.1z"/>
	<path class="st0" d="M67.1,111.1c0.9,0,1.7,0.3,2.3,1c0.6,0.6,1,1.4,1,2.3c0,0.9-0.3,1.7-1,2.3c-0.6,0.6-1.4,1-2.3,1
		s-1.7-0.3-2.3-1c-0.6-0.6-1-1.4-1-2.3c0-0.9,0.3-1.7,1-2.3C65.4,111.4,66.1,111.1,67.1,111.1z M67.1,112.1c-0.6,0-1.1,0.2-1.5,0.6
		c-0.4,0.4-0.6,0.9-0.6,1.5s0.2,1.1,0.6,1.5c0.4,0.4,0.9,0.6,1.5,0.6s1.1-0.2,1.5-0.6c0.4-0.4,0.6-0.9,0.6-1.5s-0.2-1.1-0.6-1.5
		C68.2,112.4,67.6,112.1,67.1,112.1z"/>
	<path class="st0" d="M75.8,117.6l-1.3-2.2h-1.8v2.2h-1.1v-6.5h3.3c0.6,0,1.1,0.2,1.5,0.6c0.4,0.4,0.6,0.9,0.6,1.5
		c0,0.5-0.1,0.9-0.4,1.2c-0.3,0.4-0.6,0.6-1,0.8l1.3,2.3H75.8z M74.9,112.1h-2.2v2.2l2.2,0c0.3,0,0.5-0.1,0.8-0.3
		c0.2-0.2,0.3-0.5,0.3-0.8c0-0.3-0.1-0.5-0.3-0.8C75.4,112.3,75.1,112.1,74.9,112.1z"/>
	<path class="st0" d="M78.3,111.1h1.1v6.5h-1.1V111.1z"/>
	<path class="st0" d="M82.5,114.9c-0.5,0-1-0.2-1.3-0.6c-0.4-0.4-0.6-0.8-0.6-1.4c0-0.5,0.2-1,0.6-1.3c0.4-0.4,0.8-0.6,1.3-0.6h3.5
		v1.1h-3.5c-0.1,0-0.2,0-0.3,0.1c-0.1,0-0.2,0.1-0.3,0.2s-0.1,0.2-0.2,0.3c0,0.1-0.1,0.2-0.1,0.3c0,0.2,0.1,0.4,0.2,0.6
		c0.2,0.2,0.4,0.2,0.6,0.2h1.6c0.5,0,1,0.2,1.3,0.6c0.4,0.4,0.6,0.8,0.6,1.3c0,0.5-0.2,1-0.6,1.3c-0.4,0.4-0.8,0.6-1.3,0.6h-3.5
		v-1.1h3.5c0.1,0,0.2,0,0.3-0.1c0.1,0,0.2-0.1,0.3-0.2c0.1-0.1,0.1-0.2,0.2-0.3s0.1-0.2,0.1-0.3c0-0.2-0.1-0.4-0.2-0.6
		c-0.2-0.2-0.3-0.2-0.6-0.2H82.5z"/>
	<path class="st0" d="M88.4,113.7v3.9h-1.1v-6.5l3.3,3.3l3.3-3.3v6.5h-1.1v-3.9l-2.2,2.2L88.4,113.7z"/>
	<path class="st0" d="M98.4,111.1c0.9,0,1.7,0.3,2.3,1c0.6,0.6,1,1.4,1,2.3c0,0.9-0.3,1.7-1,2.3c-0.6,0.6-1.4,1-2.3,1
		s-1.7-0.3-2.3-1c-0.6-0.6-1-1.4-1-2.3c0-0.9,0.3-1.7,1-2.3C96.7,111.4,97.5,111.1,98.4,111.1z M98.4,112.1c-0.6,0-1.1,0.2-1.5,0.6
		c-0.4,0.4-0.6,0.9-0.6,1.5s0.2,1.1,0.6,1.5c0.4,0.4,0.9,0.6,1.5,0.6s1.1-0.2,1.5-0.6c0.4-0.4,0.6-0.9,0.6-1.5s-0.2-1.1-0.6-1.5
		C99.5,112.4,99,112.1,98.4,112.1z"/>
</g>
<text transform="matrix(1 0 0 1 3.027344e-02 118.0503)" class="st4 st5 st6">More  Interiorismo</text>
<text transform="matrix(1 0 0 1 3.027344e-02 117.874)" class="st1 st7 st8">More  Interiorismo</text>
</svg>
